<!-- full-join.svg -->
<svg viewBox="0 0 24 24">
  <g fill="currentColor" class="icon-color__main"><path d="M12 16.4723C13.2275 15.3736 14 13.777 14 12C14 10.223 13.2275 8.62647 12 7.52783C10.7725 8.62647 10 10.223 10 12C10 13.777 10.7725 15.3736 12 16.4723Z"></path><path d="M22 12.0029C22 15.3166 19.3137 18.0029 16 18.0029C14.8286 18.0029 13.7356 17.6672 12.8119 17.0868C14.1581 15.8121 15 14.0052 15 12.0029C15 10.0006 14.1581 8.1937 12.8119 6.91905C13.7355 6.3386 14.8286 6.00289 16 6.00289C19.3137 6.00289 22 8.68918 22 12.0029Z"></path><path d="M11.1881 6.91616C9.84189 8.19081 9 9.99772 9 12C9 14.0023 9.84187 15.8092 11.1881 17.0839C10.2644 17.6643 9.17141 18 8 18C4.68629 18 2 15.3137 2 12C2 8.68629 4.68629 6 8 6C9.17143 6 10.2645 6.33571 11.1881 6.91616Z"></path></g>
</svg>