<!-- group-by.svg -->
<svg viewBox="0 0 24 24">
  <g transform="scale(0.9) translate(1,1)"><path fill="currentColor" d="M5,6H1C0.4,6,0,5.6,0,5V1c0-0.6,0.4-1,1-1h4c0.6,0,1,0.4,1,1v4C6,5.6,5.6,6,5,6z M2,4h2V2H2V4z"/><path d="M23,6h-4c-0.6,0-1-0.4-1-1V1c0-0.6,0.4-1,1-1h4c0.6,0,1,0.4,1,1v4C24,5.6,23.6,6,23,6z M20,4h2V2h-2V4z"/><path d="M5,24H1c-0.6,0-1-0.4-1-1v-4c0-0.6,0.4-1,1-1h4c0.6,0,1,0.4,1,1v4C6,23.6,5.6,24,5,24z M2,22h2v-2H2V22z"/><path d="M23,24h-4c-0.6,0-1-0.4-1-1v-4c0-0.6,0.4-1,1-1h4c0.6,0,1,0.4,1,1v4C24,23.6,23.6,24,23,24z M20,22h2v-2h-2V22z"/><path stroke="#2D2D2D" stroke-width="2" stroke-linecap="round" stroke-linejoin="round" stroke-miterlimit="10" d="M20,5"/><path stroke="#2D2D2D" stroke-width="2" stroke-linecap="round" stroke-linejoin="round" stroke-miterlimit="10" d="M20,19"/><path stroke="#2D2D2D" stroke-width="2" stroke-linecap="round" stroke-linejoin="round" stroke-miterlimit="10" d="M2,5"/><path stroke="#2D2D2D" stroke-width="2" stroke-linecap="round" stroke-linejoin="round" stroke-miterlimit="10" d="M3,18"/><path stroke="#2D2D2D" stroke-width="2" stroke-linecap="round" stroke-linejoin="round" stroke-miterlimit="10" d="M5,4"/><path stroke="#2D2D2D" stroke-width="2" stroke-linecap="round" stroke-linejoin="round" stroke-miterlimit="10" d="M19,4"/><path stroke="#2D2D2D" stroke-width="2" stroke-linecap="round" stroke-linejoin="round" stroke-miterlimit="10" d="M6,21"/><path stroke="#2D2D2D" stroke-width="2" stroke-linecap="round" stroke-linejoin="round" stroke-miterlimit="10" d="M19,20"/><path d="M3,20c-0.6,0-1-0.4-1-1V5c0-0.6,0.4-1,1-1s1,0.4,1,1v14C4,19.6,3.6,20,3,20z"/><path d="M19,22H5c-0.6,0-1-0.4-1-1s0.4-1,1-1h14c0.6,0,1,0.4,1,1S19.6,22,19,22z"/><path d="M21,20c-0.6,0-1-0.4-1-1V5c0-0.6,0.4-1,1-1s1,0.4,1,1v14C22,19.6,21.6,20,21,20z"/><path d="M19,4H5C4.4,4,4,3.6,4,3s0.4-1,1-1h14c0.6,0,1,0.4,1,1S19.6,4,19,4z"/></g>
</svg>