<!-- inner-join.svg -->
<svg viewBox="0 0 24 24">
  <g fill="currentColor" class="icon-color__main"><path d="M12 16.4722C13.2275 15.3735 14 13.777 14 12C14 10.223 13.2275 8.62646 12 7.52783C10.7725 8.62646 10 10.223 10 12C10 13.777 10.7725 15.3735 12 16.4722Z"></path><path d="M10.5004 16.3309C9.76486 16.7564 8.91087 17 8 17C5.23858 17 3 14.7614 3 12C3 9.23858 5.23858 7 8 7C8.91086 7 9.76484 7.24356 10.5003 7.66911C10.7112 7.4016 10.9412 7.14993 11.1881 6.91615C10.2644 6.3357 9.17142 6 8 6C4.68629 6 2 8.68629 2 12C2 15.3137 4.68629 18 8 18C9.17144 18 10.2645 17.6643 11.1881 17.0838C10.9412 16.8501 10.7113 16.5984 10.5004 16.3309Z"></path><path d="M16 17C18.7614 17 21 14.7614 21 12C21 9.23858 18.7614 7 16 7C15.0892 7 14.2352 7.24356 13.4997 7.66911C13.2888 7.4016 13.0588 7.14992 12.8119 6.91615C13.7356 6.3357 14.8286 6 16 6C19.3137 6 22 8.68629 22 12C22 15.3137 19.3137 18 16 18C14.8286 18 13.7356 17.6643 12.8119 17.0838C13.0588 16.8501 13.2887 16.5984 13.4996 16.3309C14.2352 16.7564 15.0891 17 16 17Z"></path></g>
</svg>