<!-- left-join.svg -->
<svg viewBox="0 0 24 24">
  <g fill="currentColor" class="icon-color__main"><path fill-rule="evenodd" clip-rule="evenodd" d="M12.8119 17.0839C13.7355 17.6643 14.8286 18 16 18C19.3137 18 22 15.3137 22 12C22 8.68629 19.3137 6 16 6C14.8286 6 13.7355 6.3357 12.8119 6.91614C13.0589 7.14999 13.2888 7.40165 13.4997 7.66906C14.2352 7.24354 15.0891 7 16 7C18.7614 7 21 9.23858 21 12C21 14.7614 18.7614 17 16 17C15.0891 17 14.2352 16.7565 13.4997 16.3309C13.2888 16.5983 13.0589 16.85 12.8119 17.0839Z"></path><path d="M8 6C4.68629 6 2 8.68629 2 12C2 15.3137 4.68629 18 8 18C9.53671 18 10.9385 17.4223 12 16.4722C10.7725 15.3736 10 13.777 10 12C10 10.223 10.7725 8.62643 12 7.52779C10.9385 6.57771 9.53671 6 8 6Z"></path><path d="M12.6876 8.2545C11.6526 9.17057 11 10.5091 11 12C11 13.4909 11.6526 14.8294 12.6876 15.7455C13.5089 14.719 14 13.4168 14 12C14 10.5832 13.5089 9.28101 12.6876 8.2545Z"></path></g>
</svg>
