<!-- right-join.svg -->
<svg viewBox="0 0 24 24">
  <g fill="currentColor" class="icon-color__main"><path fill-rule="evenodd" clip-rule="evenodd" d="M11.1881 17.0839C10.2645 17.6643 9.17144 18 8.00002 18C4.6863 18 2 15.3137 2 12C2 8.68629 4.6863 6 8.00002 6C9.17144 6 10.2645 6.3357 11.1881 6.91614C10.9411 7.14999 10.7112 7.40165 10.5003 7.66906C9.7648 7.24354 8.91085 7 8.00002 7C5.23859 7 3 9.23858 3 12C3 14.7614 5.23859 17 8.00002 17C8.91085 17 9.7648 16.7565 10.5003 16.3309C10.7112 16.5983 10.9411 16.85 11.1881 17.0839Z"></path><path d="M16 6C19.3137 6 22 8.68629 22 12C22 15.3137 19.3137 18 16 18C14.4633 18 13.0615 17.4223 12 16.4722C13.2275 15.3736 14 13.777 14 12C14 10.223 13.2275 8.62643 12 7.52779C13.0615 6.57771 14.4633 6 16 6Z"></path><path d="M11.3124 8.2545C12.3474 9.17057 13 10.5091 13 12C13 13.4909 12.3474 14.8294 11.3124 15.7455C10.4911 14.719 10 13.4168 10 12C10 10.5832 10.4911 9.28101 11.3124 8.2545Z"></path></g>
</svg>