<!-- where.svg -->
<svg viewBox="0 0 24 24">
  <path fill="currentColor" fill-rule="evenodd" clip-rule="evenodd" d="M3 4C3 3.44772 3.44772 3 4 3H20C20.5523 3 21 3.44772 21 4V7.25736C21 8.31823 20.5786 9.33564 19.8284 10.0858L15 14.9142V18C15 19.6569 13.6569 21 12 21C10.3431 21 9 19.6569 9 18V14.9142L4.17157 10.0858C3.42143 9.33564 3 8.31823 3 7.25736V4ZM5 5V7.25736C5 7.78779 5.21071 8.2965 5.58579 8.67157L11 14.0858V18C11 18.5523 11.4477 19 12 19C12.5523 19 13 18.5523 13 18V14.0858L18.4142 8.67157C18.7893 8.2965 19 7.78779 19 7.25736V5H5Z"></path>
</svg>
